<svg width="44" height="44" viewBox="0 0 44 44" fill="none" xmlns="http://www.w3.org/2000/svg">
<path fill-rule="evenodd" clip-rule="evenodd" d="M7.33331 22C7.33331 23.0083 8.15831 23.8333 9.16665 23.8333H36.6666C37.675 23.8333 38.5 23.0083 38.5 22C38.5 20.9917 37.675 20.1667 36.6666 20.1667L9.16665 20.1667C8.15831 20.1667 7.33331 20.9917 7.33331 22ZM22 9.16665C22 10.175 22.825 11 23.8333 11L36.6666 11C37.675 11 38.5 10.175 38.5 9.16665C38.5 8.15832 37.675 7.33332 36.6666 7.33332L23.8333 7.33332C22.825 7.33332 22 8.15832 22 9.16665ZM16.5 36.6667C15.4916 36.6667 14.6666 35.8417 14.6666 34.8333C14.6666 33.825 15.4916 33 16.5 33H36.6666C37.675 33 38.5 33.825 38.5 34.8333C38.5 35.8417 37.675 36.6667 36.6666 36.6667H16.5Z" fill="white"/>
<mask id="mask0_239_1722" style="mask-type:alpha" maskUnits="userSpaceOnUse" x="7" y="7" width="32" height="30">
<path fill-rule="evenodd" clip-rule="evenodd" d="M7.33331 22C7.33331 23.0083 8.15831 23.8333 9.16665 23.8333H36.6666C37.675 23.8333 38.5 23.0083 38.5 22C38.5 20.9917 37.675 20.1667 36.6666 20.1667L9.16665 20.1667C8.15831 20.1667 7.33331 20.9917 7.33331 22ZM22 9.16665C22 10.175 22.825 11 23.8333 11L36.6666 11C37.675 11 38.5 10.175 38.5 9.16665C38.5 8.15832 37.675 7.33332 36.6666 7.33332L23.8333 7.33332C22.825 7.33332 22 8.15832 22 9.16665ZM16.5 36.6667C15.4916 36.6667 14.6666 35.8417 14.6666 34.8333C14.6666 33.825 15.4916 33 16.5 33H36.6666C37.675 33 38.5 33.825 38.5 34.8333C38.5 35.8417 37.675 36.6667 36.6666 36.6667H16.5Z" fill="white"/>
</mask>
<g mask="url(#mask0_239_1722)">
<rect y="44" width="44" height="44" transform="rotate(-90 0 44)" fill="white"/>
</g>
</svg>
